# xmcd
# 
# Track frame offsets:
#     150
#     18127
#     34010
#     49579
#     65141
#     82565
#     103210
#     116547
#     128785
#     146479
#     166994
#     182194
# 
# Disc length: 2633
# 
# Revision: 1
# Processed by: cddbd v1.5.2PL0 Copyright (c) Steve Scherf et al.
# Submitted via: BonkEnc v1.0rc1
# 
DISCID=980a470c
DTITLE=Jibbs - Jibbs feat. Jibbs
DYEAR=2006
DGENRE=Rap
TTITLE0=Yeah Boii
TTITLE1=Smile feat. Fabo
TTITLE2=Chain Hand Low
TTITLE3=Big Big Kid
TTITLE4=Let's Be Real feat. J. Valentine
TTITLE5=King Kong feat. Chamillionaire
TTITLE6=Hood
TTITLE7=Go Gurl
TTITLE8=Go Too Far feat. PCD's Melody Thorton
TTITLE9=I'm A Rhino
TTITLE10=Bring It Back
TTITLE11=Firr Az That Thang
EXTD=
EXTT0=
EXTT1=
EXTT2=
EXTT3=
EXTT4=
EXTT5=
EXTT6=
EXTT7=
EXTT8=
EXTT9=
EXTT10=
EXTT11=
PLAYORDER=
